<svg width="24" height="24" viewBox="0 0 24 24" fill="none" xmlns="http://www.w3.org/2000/svg">
<path d="M18.8554 0.860993C18.8554 0.535333 18.6668 0.226813 18.3755 0.0896936C18.0669 -0.0645664 17.7241 -0.0131464 17.467 0.192533L9.87402 6.24295L18.8554 15.2243V0.860993Z" fill="white"/>
<path d="M23.7464 22.5362L1.46442 0.254212C1.13019 -0.0800174 0.586855 -0.0800174 0.252625 0.254212C-0.0816043 0.588442 -0.0816043 1.13178 0.252625 1.46601L5.64487 6.85996H5.14266C4.61132 6.85996 4.14854 7.09992 3.84002 7.477C3.58293 7.76838 3.42867 8.1626 3.42867 8.57396V15.43C3.42867 16.3727 4.19996 17.144 5.14266 17.144H9.11914L17.4663 23.8114C17.6206 23.9314 17.8091 23.9999 17.9977 23.9999C18.1176 23.9999 18.2548 23.9657 18.3747 23.9142C18.6661 23.7771 18.8547 23.4686 18.8547 23.1429V20.0697L22.5329 23.748C22.7009 23.916 22.9203 23.9999 23.1397 23.9999C23.359 23.9999 23.5784 23.916 23.7464 23.7497C24.0806 23.4138 24.0806 22.8721 23.7464 22.5362Z" fill="white"/>
</svg>
