<svg width="26" height="24" viewBox="0 0 26 24" fill="none" xmlns="http://www.w3.org/2000/svg">
<path d="M14.5283 0.0849976C14.2383 -0.0572822 13.8967 -0.0195694 13.6467 0.18785L5.54 6.85786H1.66667C0.748333 6.85786 0 7.62754 0 8.57207V15.4289C0 16.3752 0.748333 17.1431 1.66667 17.1431H5.54L13.645 23.8132C13.7967 23.9366 13.9817 24 14.1667 24C14.29 24 14.4133 23.9709 14.5283 23.9143C14.8167 23.772 15 23.472 15 23.1429V0.858108C15 0.528979 14.8167 0.228992 14.5283 0.0849976Z" fill="white"/>
<path d="M20.1006 6.23463C19.8459 5.91828 19.4374 5.92317 19.1865 6.24116C18.9357 6.5624 18.9383 7.0777 19.1917 7.39568C20.1692 8.61217 20.707 10.2477 20.707 12.0007C20.707 13.7537 20.1692 15.3893 19.1917 16.6058C18.9383 16.9205 18.9357 17.4374 19.1865 17.7587C19.3132 17.9201 19.48 18 19.6455 18C19.8097 18 19.9739 17.9217 20.1006 17.7635C21.3264 16.2421 22 14.194 22 12.0007C22 9.80746 21.3264 7.75932 20.1006 6.23463Z" fill="white"/>
<path d="M22.4644 3.24238C22.1259 2.91671 21.5831 2.92005 21.248 3.24739C20.9148 3.57473 20.9182 4.10414 21.2532 4.42814C23.2066 6.31032 24.282 8.82213 24.282 11.5009C24.282 14.1798 23.2066 16.6899 21.2532 18.5721C20.9182 18.8977 20.9148 19.4272 21.248 19.7545C21.4181 19.9182 21.638 20 21.8579 20C22.0761 20 22.296 19.9198 22.4644 19.7578C24.7459 17.5617 26 14.629 26 11.5009C26 8.37288 24.7459 5.44021 22.4644 3.24238Z" fill="white"/>
</svg>
